<?xml version="1.0" encoding="utf-8"?>
<!-- Generator: Adobe Illustrator 16.0.0, SVG Export Plug-In . SVG Version: 6.00 Build 0)  -->
<!DOCTYPE svg PUBLIC "-//W3C//DTD SVG 1.1//EN" "http://www.w3.org/Graphics/SVG/1.1/DTD/svg11.dtd">
<svg version="1.1" id="Layer_1" xmlns="http://www.w3.org/2000/svg" xmlns:xlink="http://www.w3.org/1999/xlink" x="0px" y="0px"
	 width="146px" height="50px" viewBox="0 0 146 50" enable-background="new 0 0 146 50" xml:space="preserve">
<polygon fill="#F34336" points="78,50 0,50 57,0 135,0 "/>
<g>
	<path fill="#FFFFFF" d="M21.824,37.444h4.202v1.401h-2.661v2.591h2.115v1.401h-2.115v3.012h2.661v1.4h-4.202V37.444z"/>
	<path fill="#FFFFFF" d="M29.65,44.925v-7.48h1.541v7.593c0,0.7,0.294,0.952,0.785,0.952s0.784-0.252,0.784-0.952v-7.593h1.485v7.48
		c0,1.568-0.785,2.465-2.297,2.465S29.65,46.493,29.65,44.925z"/>
	<path fill="#FFFFFF" d="M38.134,37.444h2.283c1.597,0,2.283,0.743,2.283,2.256v0.603c0,1.008-0.322,1.652-1.008,1.933v0.028
		c0.771,0.237,1.022,0.966,1.022,2.072v1.724c0,0.476,0.014,0.826,0.168,1.19h-1.569c-0.084-0.252-0.14-0.406-0.14-1.205v-1.793
		c0-0.91-0.266-1.204-0.966-1.204h-0.532v4.202h-1.541V37.444z M40.235,41.646c0.575,0,0.925-0.252,0.925-1.036v-0.757
		c0-0.7-0.238-1.008-0.785-1.008h-0.7v2.801H40.235z"/>
	<path fill="#FFFFFF" d="M46.576,37.444h1.541v9.806h-1.541V37.444z"/>
	<path fill="#FFFFFF" d="M52.063,37.444h1.934l1.498,5.869h0.028v-5.869h1.373v9.806h-1.583l-1.85-7.158h-0.027v7.158h-1.373V37.444
		z"/>
	<path fill="#FFFFFF" d="M60.744,44.98v-5.267c0-1.513,0.784-2.409,2.269-2.409c1.485,0,2.27,0.896,2.27,2.409v1.036h-1.457v-1.134
		c0-0.645-0.308-0.911-0.771-0.911c-0.462,0-0.77,0.267-0.77,0.911v5.477c0,0.645,0.308,0.896,0.77,0.896
		c0.463,0,0.771-0.252,0.771-0.896v-1.499h1.457v1.387c0,1.513-0.784,2.409-2.27,2.409C61.528,47.39,60.744,46.493,60.744,44.98z"/>
	<path fill="#FFFFFF" d="M68.919,44.925V39.77c0-1.568,0.827-2.465,2.34-2.465s2.339,0.896,2.339,2.465v5.155
		c0,1.568-0.826,2.465-2.339,2.465S68.919,46.493,68.919,44.925z M72.057,45.022v-5.351c0-0.7-0.308-0.967-0.798-0.967
		s-0.799,0.267-0.799,0.967v5.351c0,0.701,0.309,0.967,0.799,0.967S72.057,45.724,72.057,45.022z"/>
</g>
<g>
	<g>
		<path fill="#FFFFFF" d="M114.768,12c-0.182-0.195-0.363-0.39-0.571-0.624c-0.572,0.442-1.365,0.767-2.405,0.767
			c-2.119,0-3.055-1.248-3.055-2.482c0-1.157,0.662-1.989,1.664-2.522V7.098c-0.377-0.416-0.663-1.065-0.663-1.689
			c0-1.118,0.87-2.314,2.639-2.314c1.353,0,2.366,0.793,2.366,2.054c0,0.885-0.52,1.639-1.729,2.249V7.45
			c0.494,0.559,1.026,1.195,1.455,1.638c0.352-0.546,0.625-1.352,0.742-2.132h1.768c-0.234,1.326-0.676,2.457-1.456,3.328
			c0.493,0.559,1.001,1.131,1.547,1.716H114.768z M112.077,10.712c0.507,0,0.937-0.195,1.196-0.442
			c-0.547-0.532-1.262-1.339-1.977-2.145c-0.363,0.26-0.701,0.637-0.701,1.209c0,0.754,0.559,1.378,1.469,1.378H112.077z
			 M112.299,4.33c-0.508,0-0.781,0.429-0.781,0.896c0,0.442,0.195,0.832,0.599,1.262c0.637-0.442,0.962-0.78,0.962-1.287
			c0-0.416-0.247-0.871-0.768-0.871H112.299z"/>
	</g>
</g>
</svg>
